<svg width="18" height="18" viewBox="0 0 18 18" fill="none" xmlns="http://www.w3.org/2000/svg">
<path fill-rule="evenodd" clip-rule="evenodd" d="M3.74988 7.52571C3.75299 7.57109 3.75261 7.58264 3.76034 7.62757C3.77778 7.7286 3.81607 7.82577 3.87232 7.91149C3.90075 7.95485 3.93382 7.99268 3.96911 8.03049L8.46931 12.5307C8.50257 12.5617 8.51014 12.5704 8.54648 12.598C8.58729 12.6289 8.63127 12.6556 8.67755 12.6776C8.87972 12.7738 9.11962 12.7738 9.32179 12.6776C9.36807 12.6556 9.41206 12.6289 9.45286 12.598C9.48916 12.5704 9.49677 12.5617 9.53 12.5307L14.0302 8.03049C14.0612 7.99722 14.0699 7.98961 14.0975 7.95331C14.1698 7.85798 14.2186 7.74547 14.239 7.62757C14.2535 7.54338 14.2535 7.45686 14.239 7.37267C14.2274 7.30536 14.2065 7.23969 14.1772 7.178C14.0658 6.94369 13.8347 6.78056 13.5766 6.75401C13.4746 6.74354 13.3707 6.75423 13.273 6.78525C13.1915 6.81108 13.1147 6.85087 13.0467 6.90248C13.0103 6.93004 13.0028 6.9387 12.9695 6.96975L8.99965 10.9396L5.02981 6.96975L4.99238 6.9348C4.95713 6.90611 4.94892 6.89794 4.91082 6.87296C4.83941 6.82612 4.76002 6.79162 4.67707 6.77141C4.61069 6.75524 4.54214 6.74819 4.47388 6.75052C4.21456 6.75937 3.97286 6.90638 3.84569 7.13251C3.80384 7.20695 3.77485 7.28852 3.76034 7.37267C3.75261 7.4176 3.75299 7.42915 3.74988 7.47452C3.74988 7.49159 3.74988 7.50865 3.74988 7.52571Z" fill="#110F24" fill-opacity="0.4"/>
</svg>
