<svg width="24" height="24" viewBox="0 0 24 24" fill="none" xmlns="http://www.w3.org/2000/svg">
<path fill-rule="evenodd" clip-rule="evenodd" d="M13.9654 19C13.9049 18.9958 13.8895 18.9964 13.8296 18.986C13.6949 18.9628 13.5653 18.9117 13.451 18.8367C13.3932 18.7988 13.3428 18.7547 13.2924 18.7077L7.29211 12.7074C7.25071 12.6631 7.23916 12.653 7.20241 12.6045C7.16116 12.5501 7.12551 12.4915 7.09615 12.4298C6.96795 12.1602 6.96795 11.8403 7.09615 11.5708C7.12551 11.5091 7.16116 11.4504 7.20241 11.396C7.23916 11.3476 7.25071 11.3375 7.29211 11.2932L13.2924 5.29291C13.3367 5.25151 13.3469 5.23991 13.3953 5.20321C13.5224 5.10675 13.6724 5.04165 13.8296 5.0145C13.9418 4.9952 14.0572 4.9952 14.1695 5.0145C14.2592 5.03 14.3468 5.0578 14.429 5.0969C14.7414 5.24546 14.9589 5.55362 14.9943 5.89774C15.0083 6.03374 14.994 6.17225 14.9527 6.30256C14.9182 6.41111 14.8652 6.51356 14.7964 6.60427C14.7596 6.65272 14.7481 6.66282 14.7067 6.70717L9.41355 12.0003L14.7067 17.2934L14.7533 17.3433C14.7915 17.3903 14.8024 17.4013 14.8357 17.4521C14.8982 17.5473 14.9442 17.6531 14.9711 17.7637C14.9927 17.8523 15.0021 17.9437 14.999 18.0347C14.9872 18.3804 14.7912 18.7027 14.4897 18.8722C14.3904 18.928 14.2817 18.9667 14.1695 18.986C14.1096 18.9964 14.0942 18.9958 14.0337 19C14.0109 19 13.9881 19 13.9654 19Z" fill="#110F24" fill-opacity="0.4"/>
</svg>
