<svg width="78" height="12" viewBox="0 0 78 12" fill="none" xmlns="http://www.w3.org/2000/svg">
<path d="M7.15384 0.401999V9H6.57184C6.47984 9 6.40184 8.984 6.33784 8.952C6.27784 8.92 6.21784 8.866 6.15784 8.79L1.18384 2.31C1.19184 2.41 1.19784 2.508 1.20184 2.604C1.20584 2.7 1.20784 2.79 1.20784 2.874V9H0.187844V0.401999H0.787844C0.839844 0.401999 0.883844 0.405999 0.919844 0.413999C0.955844 0.418 0.987844 0.427999 1.01584 0.443999C1.04384 0.455999 1.07184 0.476 1.09984 0.504C1.12784 0.528 1.15784 0.559999 1.18984 0.599999L6.16384 7.074C6.15584 6.97 6.14784 6.87 6.13984 6.774C6.13584 6.674 6.13384 6.58 6.13384 6.492V0.401999H7.15384ZM12.9804 5.298C12.9804 5.05 12.9444 4.824 12.8724 4.62C12.8044 4.412 12.7024 4.234 12.5664 4.086C12.4344 3.934 12.2724 3.818 12.0804 3.738C11.8884 3.654 11.6704 3.612 11.4264 3.612C10.9144 3.612 10.5084 3.762 10.2084 4.062C9.91241 4.358 9.72841 4.77 9.65641 5.298H12.9804ZM13.8444 8.148C13.7124 8.308 13.5544 8.448 13.3704 8.568C13.1864 8.684 12.9884 8.78 12.7764 8.856C12.5684 8.932 12.3524 8.988 12.1284 9.024C11.9044 9.064 11.6824 9.084 11.4624 9.084C11.0424 9.084 10.6544 9.014 10.2984 8.874C9.94641 8.73 9.64041 8.522 9.38041 8.25C9.12441 7.974 8.92441 7.634 8.78041 7.23C8.63641 6.826 8.56441 6.362 8.56441 5.838C8.56441 5.414 8.62841 5.018 8.75641 4.65C8.88841 4.282 9.07641 3.964 9.32041 3.696C9.56441 3.424 9.86241 3.212 10.2144 3.06C10.5664 2.904 10.9624 2.826 11.4024 2.826C11.7664 2.826 12.1024 2.888 12.4104 3.012C12.7224 3.132 12.9904 3.308 13.2144 3.54C13.4424 3.768 13.6204 4.052 13.7484 4.392C13.8764 4.728 13.9404 5.112 13.9404 5.544C13.9404 5.712 13.9224 5.824 13.8864 5.88C13.8504 5.936 13.7824 5.964 13.6824 5.964H9.62041C9.63241 6.348 9.68441 6.682 9.77641 6.966C9.87241 7.25 10.0044 7.488 10.1724 7.68C10.3404 7.868 10.5404 8.01 10.7724 8.106C11.0044 8.198 11.2644 8.244 11.5524 8.244C11.8204 8.244 12.0504 8.214 12.2424 8.154C12.4384 8.09 12.6064 8.022 12.7464 7.95C12.8864 7.878 13.0024 7.812 13.0944 7.752C13.1904 7.688 13.2724 7.656 13.3404 7.656C13.4284 7.656 13.4964 7.69 13.5444 7.758L13.8444 8.148ZM23.5757 2.922L21.6077 9H20.7617C20.6577 9 20.5857 8.932 20.5457 8.796L19.2017 4.674C19.1697 4.582 19.1437 4.49 19.1237 4.398C19.1037 4.302 19.0837 4.208 19.0637 4.116C19.0437 4.208 19.0237 4.302 19.0037 4.398C18.9837 4.49 18.9577 4.584 18.9257 4.68L17.5577 8.796C17.5217 8.932 17.4417 9 17.3177 9H16.5137L14.5457 2.922H15.3857C15.4697 2.922 15.5397 2.944 15.5957 2.988C15.6557 3.032 15.6957 3.084 15.7157 3.144L16.8797 7.056C16.9477 7.344 17.0017 7.616 17.0417 7.872C17.0777 7.74 17.1137 7.606 17.1497 7.47C17.1897 7.334 17.2317 7.196 17.2757 7.056L18.5597 3.12C18.5797 3.06 18.6137 3.01 18.6617 2.97C18.7137 2.93 18.7757 2.91 18.8477 2.91H19.3157C19.3957 2.91 19.4617 2.93 19.5137 2.97C19.5657 3.01 19.6017 3.06 19.6217 3.12L20.8757 7.056C20.9197 7.196 20.9597 7.334 20.9957 7.47C21.0317 7.606 21.0657 7.74 21.0977 7.872C21.1177 7.74 21.1417 7.608 21.1697 7.476C21.2017 7.34 21.2357 7.2 21.2717 7.056L22.4597 3.144C22.4797 3.08 22.5177 3.028 22.5737 2.988C22.6297 2.944 22.6957 2.922 22.7717 2.922H23.5757ZM36.6378 0.401999V9H35.6178V2.682C35.6178 2.598 35.6198 2.508 35.6238 2.412C35.6318 2.316 35.6398 2.218 35.6478 2.118L32.6958 7.494C32.6038 7.674 32.4638 7.764 32.2758 7.764H32.1078C31.9198 7.764 31.7798 7.674 31.6878 7.494L28.6758 2.094C28.6998 2.306 28.7118 2.502 28.7118 2.682V9H27.6918V0.401999H28.5498C28.6538 0.401999 28.7338 0.411999 28.7898 0.431999C28.8458 0.451999 28.8998 0.507999 28.9518 0.599999L31.9218 5.892C31.9698 5.988 32.0158 6.088 32.0598 6.192C32.1078 6.296 32.1518 6.402 32.1918 6.51C32.2318 6.402 32.2738 6.296 32.3178 6.192C32.3618 6.084 32.4098 5.982 32.4618 5.886L35.3778 0.599999C35.4258 0.507999 35.4778 0.451999 35.5338 0.431999C35.5938 0.411999 35.6758 0.401999 35.7798 0.401999H36.6378ZM42.4648 5.298C42.4648 5.05 42.4288 4.824 42.3568 4.62C42.2888 4.412 42.1868 4.234 42.0508 4.086C41.9188 3.934 41.7568 3.818 41.5648 3.738C41.3728 3.654 41.1548 3.612 40.9108 3.612C40.3988 3.612 39.9928 3.762 39.6928 4.062C39.3968 4.358 39.2128 4.77 39.1408 5.298H42.4648ZM43.3288 8.148C43.1968 8.308 43.0388 8.448 42.8548 8.568C42.6708 8.684 42.4728 8.78 42.2608 8.856C42.0528 8.932 41.8368 8.988 41.6128 9.024C41.3888 9.064 41.1668 9.084 40.9468 9.084C40.5268 9.084 40.1388 9.014 39.7828 8.874C39.4308 8.73 39.1248 8.522 38.8648 8.25C38.6088 7.974 38.4088 7.634 38.2648 7.23C38.1208 6.826 38.0488 6.362 38.0488 5.838C38.0488 5.414 38.1128 5.018 38.2408 4.65C38.3728 4.282 38.5608 3.964 38.8048 3.696C39.0488 3.424 39.3468 3.212 39.6988 3.06C40.0508 2.904 40.4468 2.826 40.8868 2.826C41.2508 2.826 41.5868 2.888 41.8948 3.012C42.2068 3.132 42.4748 3.308 42.6988 3.54C42.9268 3.768 43.1048 4.052 43.2328 4.392C43.3608 4.728 43.4248 5.112 43.4248 5.544C43.4248 5.712 43.4068 5.824 43.3708 5.88C43.3348 5.936 43.2668 5.964 43.1668 5.964H39.1048C39.1168 6.348 39.1688 6.682 39.2608 6.966C39.3568 7.25 39.4888 7.488 39.6568 7.68C39.8248 7.868 40.0248 8.01 40.2568 8.106C40.4888 8.198 40.7488 8.244 41.0368 8.244C41.3048 8.244 41.5348 8.214 41.7268 8.154C41.9228 8.09 42.0908 8.022 42.2308 7.95C42.3708 7.878 42.4868 7.812 42.5788 7.752C42.6748 7.688 42.7568 7.656 42.8248 7.656C42.9128 7.656 42.9808 7.69 43.0288 7.758L43.3288 8.148ZM48.2766 3.924C48.2286 4.012 48.1546 4.056 48.0546 4.056C47.9946 4.056 47.9266 4.034 47.8506 3.99C47.7746 3.946 47.6806 3.898 47.5686 3.846C47.4606 3.79 47.3306 3.74 47.1786 3.696C47.0266 3.648 46.8466 3.624 46.6386 3.624C46.4586 3.624 46.2966 3.648 46.1526 3.696C46.0086 3.74 45.8846 3.802 45.7806 3.882C45.6806 3.962 45.6026 4.056 45.5466 4.164C45.4946 4.268 45.4686 4.382 45.4686 4.506C45.4686 4.662 45.5126 4.792 45.6006 4.896C45.6926 5 45.8126 5.09 45.9606 5.166C46.1086 5.242 46.2766 5.31 46.4646 5.37C46.6526 5.426 46.8446 5.488 47.0406 5.556C47.2406 5.62 47.4346 5.692 47.6226 5.772C47.8106 5.852 47.9786 5.952 48.1266 6.072C48.2746 6.192 48.3926 6.34 48.4806 6.516C48.5726 6.688 48.6186 6.896 48.6186 7.14C48.6186 7.42 48.5686 7.68 48.4686 7.92C48.3686 8.156 48.2206 8.362 48.0246 8.538C47.8286 8.71 47.5886 8.846 47.3046 8.946C47.0206 9.046 46.6926 9.096 46.3206 9.096C45.8966 9.096 45.5126 9.028 45.1686 8.892C44.8246 8.752 44.5326 8.574 44.2926 8.358L44.5446 7.95C44.5766 7.898 44.6146 7.858 44.6586 7.83C44.7026 7.802 44.7586 7.788 44.8266 7.788C44.8986 7.788 44.9746 7.816 45.0546 7.872C45.1346 7.928 45.2306 7.99 45.3426 8.058C45.4586 8.126 45.5986 8.188 45.7626 8.244C45.9266 8.3 46.1306 8.328 46.3746 8.328C46.5826 8.328 46.7646 8.302 46.9206 8.25C47.0766 8.194 47.2066 8.12 47.3106 8.028C47.4146 7.936 47.4906 7.83 47.5386 7.71C47.5906 7.59 47.6166 7.462 47.6166 7.326C47.6166 7.158 47.5706 7.02 47.4786 6.912C47.3906 6.8 47.2726 6.706 47.1246 6.63C46.9766 6.55 46.8066 6.482 46.6146 6.426C46.4266 6.366 46.2326 6.304 46.0326 6.24C45.8366 6.176 45.6426 6.104 45.4506 6.024C45.2626 5.94 45.0946 5.836 44.9466 5.712C44.7986 5.588 44.6786 5.436 44.5866 5.256C44.4986 5.072 44.4546 4.85 44.4546 4.59C44.4546 4.358 44.5026 4.136 44.5986 3.924C44.6946 3.708 44.8346 3.52 45.0186 3.36C45.2026 3.196 45.4286 3.066 45.6966 2.97C45.9646 2.874 46.2706 2.826 46.6146 2.826C47.0146 2.826 47.3726 2.89 47.6886 3.018C48.0086 3.142 48.2846 3.314 48.5166 3.534L48.2766 3.924ZM53.468 3.924C53.42 4.012 53.346 4.056 53.246 4.056C53.186 4.056 53.118 4.034 53.042 3.99C52.966 3.946 52.872 3.898 52.76 3.846C52.652 3.79 52.522 3.74 52.37 3.696C52.218 3.648 52.038 3.624 51.83 3.624C51.65 3.624 51.488 3.648 51.344 3.696C51.2 3.74 51.076 3.802 50.972 3.882C50.872 3.962 50.794 4.056 50.738 4.164C50.686 4.268 50.66 4.382 50.66 4.506C50.66 4.662 50.704 4.792 50.792 4.896C50.884 5 51.004 5.09 51.152 5.166C51.3 5.242 51.468 5.31 51.656 5.37C51.844 5.426 52.036 5.488 52.232 5.556C52.432 5.62 52.626 5.692 52.814 5.772C53.002 5.852 53.17 5.952 53.318 6.072C53.466 6.192 53.584 6.34 53.672 6.516C53.764 6.688 53.81 6.896 53.81 7.14C53.81 7.42 53.76 7.68 53.66 7.92C53.56 8.156 53.412 8.362 53.216 8.538C53.02 8.71 52.78 8.846 52.496 8.946C52.212 9.046 51.884 9.096 51.512 9.096C51.088 9.096 50.704 9.028 50.36 8.892C50.016 8.752 49.724 8.574 49.484 8.358L49.736 7.95C49.768 7.898 49.806 7.858 49.85 7.83C49.894 7.802 49.95 7.788 50.018 7.788C50.09 7.788 50.166 7.816 50.246 7.872C50.326 7.928 50.422 7.99 50.534 8.058C50.65 8.126 50.79 8.188 50.954 8.244C51.118 8.3 51.322 8.328 51.566 8.328C51.774 8.328 51.956 8.302 52.112 8.25C52.268 8.194 52.398 8.12 52.502 8.028C52.606 7.936 52.682 7.83 52.73 7.71C52.782 7.59 52.808 7.462 52.808 7.326C52.808 7.158 52.762 7.02 52.67 6.912C52.582 6.8 52.464 6.706 52.316 6.63C52.168 6.55 51.998 6.482 51.806 6.426C51.618 6.366 51.424 6.304 51.224 6.24C51.028 6.176 50.834 6.104 50.642 6.024C50.454 5.94 50.286 5.836 50.138 5.712C49.99 5.588 49.87 5.436 49.778 5.256C49.69 5.072 49.646 4.85 49.646 4.59C49.646 4.358 49.694 4.136 49.79 3.924C49.886 3.708 50.026 3.52 50.21 3.36C50.394 3.196 50.62 3.066 50.888 2.97C51.156 2.874 51.462 2.826 51.806 2.826C52.206 2.826 52.564 2.89 52.88 3.018C53.2 3.142 53.476 3.314 53.708 3.534L53.468 3.924ZM58.4134 6.264C57.9214 6.28 57.5014 6.32 57.1534 6.384C56.8094 6.444 56.5274 6.524 56.3074 6.624C56.0914 6.724 55.9334 6.842 55.8334 6.978C55.7374 7.114 55.6894 7.266 55.6894 7.434C55.6894 7.594 55.7154 7.732 55.7674 7.848C55.8194 7.964 55.8894 8.06 55.9774 8.136C56.0694 8.208 56.1754 8.262 56.2954 8.298C56.4194 8.33 56.5514 8.346 56.6914 8.346C56.8794 8.346 57.0514 8.328 57.2074 8.292C57.3634 8.252 57.5094 8.196 57.6454 8.124C57.7854 8.052 57.9174 7.966 58.0414 7.866C58.1694 7.766 58.2934 7.652 58.4134 7.524V6.264ZM54.9634 3.78C55.2994 3.456 55.6614 3.214 56.0494 3.054C56.4374 2.894 56.8674 2.814 57.3394 2.814C57.6794 2.814 57.9814 2.87 58.2454 2.982C58.5094 3.094 58.7314 3.25 58.9114 3.45C59.0914 3.65 59.2274 3.892 59.3194 4.176C59.4114 4.46 59.4574 4.772 59.4574 5.112V9H58.9834C58.8794 9 58.7994 8.984 58.7434 8.952C58.6874 8.916 58.6434 8.848 58.6114 8.748L58.4914 8.172C58.3314 8.32 58.1754 8.452 58.0234 8.568C57.8714 8.68 57.7114 8.776 57.5434 8.856C57.3754 8.932 57.1954 8.99 57.0034 9.03C56.8154 9.074 56.6054 9.096 56.3734 9.096C56.1374 9.096 55.9154 9.064 55.7074 9C55.4994 8.932 55.3174 8.832 55.1614 8.7C55.0094 8.568 54.8874 8.402 54.7954 8.202C54.7074 7.998 54.6634 7.758 54.6634 7.482C54.6634 7.242 54.7294 7.012 54.8614 6.792C54.9934 6.568 55.2074 6.37 55.5034 6.198C55.7994 6.026 56.1854 5.886 56.6614 5.778C57.1374 5.666 57.7214 5.602 58.4134 5.586V5.112C58.4134 4.64 58.3114 4.284 58.1074 4.044C57.9034 3.8 57.6054 3.678 57.2134 3.678C56.9494 3.678 56.7274 3.712 56.5474 3.78C56.3714 3.844 56.2174 3.918 56.0854 4.002C55.9574 4.082 55.8454 4.156 55.7494 4.224C55.6574 4.288 55.5654 4.32 55.4734 4.32C55.4014 4.32 55.3394 4.302 55.2874 4.266C55.2354 4.226 55.1914 4.178 55.1554 4.122L54.9634 3.78ZM63.2023 6.03C63.4183 6.03 63.6083 6 63.7723 5.94C63.9363 5.88 64.0743 5.796 64.1863 5.688C64.2983 5.58 64.3823 5.452 64.4383 5.304C64.4943 5.152 64.5223 4.986 64.5223 4.806C64.5223 4.434 64.4083 4.138 64.1803 3.918C63.9563 3.698 63.6303 3.588 63.2023 3.588C62.7703 3.588 62.4403 3.698 62.2123 3.918C61.9883 4.138 61.8763 4.434 61.8763 4.806C61.8763 4.986 61.9043 5.152 61.9603 5.304C62.0203 5.452 62.1063 5.58 62.2183 5.688C62.3303 5.796 62.4683 5.88 62.6323 5.94C62.7963 6 62.9863 6.03 63.2023 6.03ZM65.1283 9.33C65.1283 9.182 65.0863 9.062 65.0023 8.97C64.9183 8.878 64.8043 8.806 64.6603 8.754C64.5203 8.702 64.3563 8.666 64.1683 8.646C63.9803 8.622 63.7803 8.604 63.5683 8.592C63.3603 8.58 63.1483 8.568 62.9323 8.556C62.7163 8.544 62.5083 8.524 62.3083 8.496C62.0843 8.6 61.9003 8.732 61.7563 8.892C61.6163 9.048 61.5463 9.232 61.5463 9.444C61.5463 9.58 61.5803 9.706 61.6483 9.822C61.7203 9.942 61.8283 10.044 61.9723 10.128C62.1163 10.216 62.2963 10.284 62.5123 10.332C62.7323 10.384 62.9903 10.41 63.2863 10.41C63.5743 10.41 63.8323 10.384 64.0603 10.332C64.2883 10.28 64.4803 10.206 64.6363 10.11C64.7963 10.014 64.9183 9.9 65.0023 9.768C65.0863 9.636 65.1283 9.49 65.1283 9.33ZM66.2143 3.162V3.558C66.2143 3.69 66.1303 3.774 65.9623 3.81L65.2723 3.9C65.4083 4.164 65.4763 4.456 65.4763 4.776C65.4763 5.072 65.4183 5.342 65.3023 5.586C65.1903 5.826 65.0343 6.032 64.8343 6.204C64.6343 6.376 64.3943 6.508 64.1143 6.6C63.8343 6.692 63.5303 6.738 63.2023 6.738C62.9183 6.738 62.6503 6.704 62.3983 6.636C62.2703 6.716 62.1723 6.802 62.1043 6.894C62.0363 6.982 62.0023 7.072 62.0023 7.164C62.0023 7.308 62.0603 7.418 62.1763 7.494C62.2963 7.566 62.4523 7.618 62.6443 7.65C62.8363 7.682 63.0543 7.702 63.2983 7.71C63.5463 7.718 63.7983 7.732 64.0543 7.752C64.3143 7.768 64.5663 7.798 64.8103 7.842C65.0583 7.886 65.2783 7.958 65.4703 8.058C65.6623 8.158 65.8163 8.296 65.9323 8.472C66.0523 8.648 66.1123 8.876 66.1123 9.156C66.1123 9.416 66.0463 9.668 65.9143 9.912C65.7863 10.156 65.6003 10.372 65.3563 10.56C65.1123 10.752 64.8123 10.904 64.4563 11.016C64.1043 11.132 63.7063 11.19 63.2623 11.19C62.8183 11.19 62.4303 11.146 62.0983 11.058C61.7663 10.97 61.4903 10.852 61.2703 10.704C61.0503 10.556 60.8843 10.384 60.7723 10.188C60.6643 9.996 60.6103 9.794 60.6103 9.582C60.6103 9.282 60.7043 9.028 60.8923 8.82C61.0803 8.612 61.3383 8.446 61.6663 8.322C61.4863 8.242 61.3423 8.136 61.2343 8.004C61.1303 7.868 61.0783 7.686 61.0783 7.458C61.0783 7.37 61.0943 7.28 61.1263 7.188C61.1583 7.092 61.2063 6.998 61.2703 6.906C61.3383 6.81 61.4203 6.72 61.5163 6.636C61.6123 6.552 61.7243 6.478 61.8523 6.414C61.5523 6.246 61.3183 6.024 61.1503 5.748C60.9823 5.468 60.8983 5.144 60.8983 4.776C60.8983 4.48 60.9543 4.212 61.0663 3.972C61.1823 3.728 61.3423 3.522 61.5463 3.354C61.7503 3.182 61.9923 3.05 62.2723 2.958C62.5563 2.866 62.8663 2.82 63.2023 2.82C63.4663 2.82 63.7123 2.85 63.9403 2.91C64.1683 2.966 64.3763 3.05 64.5643 3.162H66.2143ZM71.2929 5.298C71.2929 5.05 71.2569 4.824 71.1849 4.62C71.1169 4.412 71.0149 4.234 70.8789 4.086C70.7469 3.934 70.5849 3.818 70.3929 3.738C70.2009 3.654 69.9829 3.612 69.7389 3.612C69.2269 3.612 68.8209 3.762 68.5209 4.062C68.2249 4.358 68.0409 4.77 67.9689 5.298H71.2929ZM72.1569 8.148C72.0249 8.308 71.8669 8.448 71.6829 8.568C71.4989 8.684 71.3009 8.78 71.0889 8.856C70.8809 8.932 70.6649 8.988 70.4409 9.024C70.2169 9.064 69.9949 9.084 69.7749 9.084C69.3549 9.084 68.9669 9.014 68.6109 8.874C68.2589 8.73 67.9529 8.522 67.6929 8.25C67.4369 7.974 67.2369 7.634 67.0929 7.23C66.9489 6.826 66.8769 6.362 66.8769 5.838C66.8769 5.414 66.9409 5.018 67.0689 4.65C67.2009 4.282 67.3889 3.964 67.6329 3.696C67.8769 3.424 68.1749 3.212 68.5269 3.06C68.8789 2.904 69.2749 2.826 69.7149 2.826C70.0789 2.826 70.4149 2.888 70.7229 3.012C71.0349 3.132 71.3029 3.308 71.5269 3.54C71.7549 3.768 71.9329 4.052 72.0609 4.392C72.1889 4.728 72.2529 5.112 72.2529 5.544C72.2529 5.712 72.2349 5.824 72.1989 5.88C72.1629 5.936 72.0949 5.964 71.9949 5.964H67.9329C67.9449 6.348 67.9969 6.682 68.0889 6.966C68.1849 7.25 68.3169 7.488 68.4849 7.68C68.6529 7.868 68.8529 8.01 69.0849 8.106C69.3169 8.198 69.5769 8.244 69.8649 8.244C70.1329 8.244 70.3629 8.214 70.5549 8.154C70.7509 8.09 70.9189 8.022 71.0589 7.95C71.1989 7.878 71.3149 7.812 71.4069 7.752C71.5029 7.688 71.5849 7.656 71.6529 7.656C71.7409 7.656 71.8089 7.69 71.8569 7.758L72.1569 8.148ZM77.1048 3.924C77.0568 4.012 76.9828 4.056 76.8828 4.056C76.8228 4.056 76.7548 4.034 76.6788 3.99C76.6028 3.946 76.5088 3.898 76.3968 3.846C76.2888 3.79 76.1588 3.74 76.0068 3.696C75.8548 3.648 75.6748 3.624 75.4668 3.624C75.2868 3.624 75.1248 3.648 74.9808 3.696C74.8368 3.74 74.7128 3.802 74.6088 3.882C74.5088 3.962 74.4308 4.056 74.3748 4.164C74.3228 4.268 74.2968 4.382 74.2968 4.506C74.2968 4.662 74.3408 4.792 74.4288 4.896C74.5208 5 74.6408 5.09 74.7888 5.166C74.9368 5.242 75.1048 5.31 75.2928 5.37C75.4808 5.426 75.6728 5.488 75.8688 5.556C76.0688 5.62 76.2628 5.692 76.4508 5.772C76.6388 5.852 76.8068 5.952 76.9548 6.072C77.1028 6.192 77.2208 6.34 77.3088 6.516C77.4008 6.688 77.4468 6.896 77.4468 7.14C77.4468 7.42 77.3968 7.68 77.2968 7.92C77.1968 8.156 77.0488 8.362 76.8528 8.538C76.6568 8.71 76.4168 8.846 76.1328 8.946C75.8488 9.046 75.5208 9.096 75.1488 9.096C74.7248 9.096 74.3408 9.028 73.9968 8.892C73.6528 8.752 73.3608 8.574 73.1208 8.358L73.3728 7.95C73.4048 7.898 73.4428 7.858 73.4868 7.83C73.5308 7.802 73.5868 7.788 73.6548 7.788C73.7268 7.788 73.8028 7.816 73.8828 7.872C73.9628 7.928 74.0588 7.99 74.1708 8.058C74.2868 8.126 74.4268 8.188 74.5908 8.244C74.7548 8.3 74.9588 8.328 75.2028 8.328C75.4108 8.328 75.5928 8.302 75.7487 8.25C75.9048 8.194 76.0348 8.12 76.1388 8.028C76.2428 7.936 76.3188 7.83 76.3668 7.71C76.4188 7.59 76.4448 7.462 76.4448 7.326C76.4448 7.158 76.3988 7.02 76.3068 6.912C76.2188 6.8 76.1008 6.706 75.9528 6.63C75.8048 6.55 75.6348 6.482 75.4428 6.426C75.2548 6.366 75.0608 6.304 74.8608 6.24C74.6648 6.176 74.4708 6.104 74.2788 6.024C74.0908 5.94 73.9228 5.836 73.7748 5.712C73.6268 5.588 73.5068 5.436 73.4148 5.256C73.3268 5.072 73.2828 4.85 73.2828 4.59C73.2828 4.358 73.3308 4.136 73.4268 3.924C73.5228 3.708 73.6628 3.52 73.8468 3.36C74.0308 3.196 74.2568 3.066 74.5248 2.97C74.7928 2.874 75.0988 2.826 75.4428 2.826C75.8428 2.826 76.2008 2.89 76.5168 3.018C76.8368 3.142 77.1128 3.314 77.3448 3.534L77.1048 3.924Z" fill="#110F24" fill-opacity="0.4"/>
</svg>
